<mxfile host="drawio-plugin" modified="2023-02-02T09:57:28.667Z" agent="5.0 (Windows NT 6.2; Win64; x64) AppleWebKit/537.36 (KHTML, like Gecko) Chrome/89.0.4389.114 Safari/537.36" etag="TH-FHw_TlZVNculPSqRY" version="20.5.3" type="embed"><diagram id="wIswjf1ElhtmW5bslPWL" name="Seite-1"><mxGraphModel dx="760" dy="1665" grid="1" gridSize="10" guides="1" tooltips="1" connect="1" arrows="1" fold="1" page="1" pageScale="1" pageWidth="827" pageHeight="1169" math="0" shadow="0"><root><mxCell id="0"/><mxCell id="1" parent="0"/><mxCell id="-07N4ZEuxMwCek4Rzp88-113" style="edgeStyle=orthogonalEdgeStyle;rounded=0;orthogonalLoop=1;jettySize=auto;html=1;endArrow=block;endFill=1;" parent="1" source="-07N4ZEuxMwCek4Rzp88-1" target="-07N4ZEuxMwCek4Rzp88-15" edge="1"><mxGeometry relative="1" as="geometry"/></mxCell><mxCell id="-07N4ZEuxMwCek4Rzp88-115" style="edgeStyle=orthogonalEdgeStyle;rounded=0;orthogonalLoop=1;jettySize=auto;html=1;endArrow=block;endFill=1;" parent="1" source="-07N4ZEuxMwCek4Rzp88-1" target="-07N4ZEuxMwCek4Rzp88-57" edge="1"><mxGeometry relative="1" as="geometry"><Array as="points"><mxPoint x="485" y="703"/><mxPoint x="485" y="500"/></Array></mxGeometry></mxCell><mxCell id="-07N4ZEuxMwCek4Rzp88-1" value="OrderTerminal" style="swimlane;fontStyle=1;align=center;verticalAlign=top;childLayout=stackLayout;horizontal=1;startSize=26;horizontalStack=0;resizeParent=1;resizeParentMax=0;resizeLast=0;collapsible=1;marginBottom=0;" parent="1" vertex="1"><mxGeometry x="730" y="530" width="330" height="346" as="geometry"/></mxCell><mxCell id="-07N4ZEuxMwCek4Rzp88-2" value="- products: ArrayList&lt;Product&gt;" style="text;strokeColor=none;fillColor=none;align=left;verticalAlign=top;spacingLeft=4;spacingRight=4;overflow=hidden;rotatable=0;points=[[0,0.5],[1,0.5]];portConstraint=eastwest;" parent="-07N4ZEuxMwCek4Rzp88-1" vertex="1"><mxGeometry y="26" width="330" height="26" as="geometry"/></mxCell><mxCell id="-07N4ZEuxMwCek4Rzp88-3" value="- scanner: Scanner" style="text;strokeColor=none;fillColor=none;align=left;verticalAlign=top;spacingLeft=4;spacingRight=4;overflow=hidden;rotatable=0;points=[[0,0.5],[1,0.5]];portConstraint=eastwest;" parent="-07N4ZEuxMwCek4Rzp88-1" vertex="1"><mxGeometry y="52" width="330" height="26" as="geometry"/></mxCell><mxCell id="-07N4ZEuxMwCek4Rzp88-4" value="" style="line;strokeWidth=1;fillColor=none;align=left;verticalAlign=middle;spacingTop=-1;spacingLeft=3;spacingRight=3;rotatable=0;labelPosition=right;points=[];portConstraint=eastwest;strokeColor=inherit;" parent="-07N4ZEuxMwCek4Rzp88-1" vertex="1"><mxGeometry y="78" width="330" height="8" as="geometry"/></mxCell><mxCell id="-07N4ZEuxMwCek4Rzp88-5" value="+ Start(): void" style="text;strokeColor=none;fillColor=none;align=left;verticalAlign=top;spacingLeft=4;spacingRight=4;overflow=hidden;rotatable=0;points=[[0,0.5],[1,0.5]];portConstraint=eastwest;" parent="-07N4ZEuxMwCek4Rzp88-1" vertex="1"><mxGeometry y="86" width="330" height="26" as="geometry"/></mxCell><mxCell id="-07N4ZEuxMwCek4Rzp88-6" value="- checkoutOrder(): void" style="text;strokeColor=none;fillColor=none;align=left;verticalAlign=top;spacingLeft=4;spacingRight=4;overflow=hidden;rotatable=0;points=[[0,0.5],[1,0.5]];portConstraint=eastwest;" parent="-07N4ZEuxMwCek4Rzp88-1" vertex="1"><mxGeometry y="112" width="330" height="26" as="geometry"/></mxCell><mxCell id="-07N4ZEuxMwCek4Rzp88-7" value="- removeProduct(): void" style="text;strokeColor=none;fillColor=none;align=left;verticalAlign=top;spacingLeft=4;spacingRight=4;overflow=hidden;rotatable=0;points=[[0,0.5],[1,0.5]];portConstraint=eastwest;" parent="-07N4ZEuxMwCek4Rzp88-1" vertex="1"><mxGeometry y="138" width="330" height="26" as="geometry"/></mxCell><mxCell id="-07N4ZEuxMwCek4Rzp88-8" value="- getToppingsString(toppingList: ArrayList&lt;Product&gt;): String" style="text;strokeColor=none;fillColor=none;align=left;verticalAlign=top;spacingLeft=4;spacingRight=4;overflow=hidden;rotatable=0;points=[[0,0.5],[1,0.5]];portConstraint=eastwest;" parent="-07N4ZEuxMwCek4Rzp88-1" vertex="1"><mxGeometry y="164" width="330" height="26" as="geometry"/></mxCell><mxCell id="-07N4ZEuxMwCek4Rzp88-9" value="- askForToppings(meal: Meal): ArrayList&lt;Topping&gt;" style="text;strokeColor=none;fillColor=none;align=left;verticalAlign=top;spacingLeft=4;spacingRight=4;overflow=hidden;rotatable=0;points=[[0,0.5],[1,0.5]];portConstraint=eastwest;" parent="-07N4ZEuxMwCek4Rzp88-1" vertex="1"><mxGeometry y="190" width="330" height="26" as="geometry"/></mxCell><mxCell id="-07N4ZEuxMwCek4Rzp88-10" value="- printOptions(): void" style="text;strokeColor=none;fillColor=none;align=left;verticalAlign=top;spacingLeft=4;spacingRight=4;overflow=hidden;rotatable=0;points=[[0,0.5],[1,0.5]];portConstraint=eastwest;" parent="-07N4ZEuxMwCek4Rzp88-1" vertex="1"><mxGeometry y="216" width="330" height="26" as="geometry"/></mxCell><mxCell id="-07N4ZEuxMwCek4Rzp88-11" value="- printMenu(): void" style="text;strokeColor=none;fillColor=none;align=left;verticalAlign=top;spacingLeft=4;spacingRight=4;overflow=hidden;rotatable=0;points=[[0,0.5],[1,0.5]];portConstraint=eastwest;" parent="-07N4ZEuxMwCek4Rzp88-1" vertex="1"><mxGeometry y="242" width="330" height="26" as="geometry"/></mxCell><mxCell id="-07N4ZEuxMwCek4Rzp88-12" value="- printOrder(): void" style="text;strokeColor=none;fillColor=none;align=left;verticalAlign=top;spacingLeft=4;spacingRight=4;overflow=hidden;rotatable=0;points=[[0,0.5],[1,0.5]];portConstraint=eastwest;" parent="-07N4ZEuxMwCek4Rzp88-1" vertex="1"><mxGeometry y="268" width="330" height="26" as="geometry"/></mxCell><mxCell id="-07N4ZEuxMwCek4Rzp88-13" value="- printAvailableProducts(): ArrayList&lt;Product&gt;" style="text;strokeColor=none;fillColor=none;align=left;verticalAlign=top;spacingLeft=4;spacingRight=4;overflow=hidden;rotatable=0;points=[[0,0.5],[1,0.5]];portConstraint=eastwest;" parent="-07N4ZEuxMwCek4Rzp88-1" vertex="1"><mxGeometry y="294" width="330" height="26" as="geometry"/></mxCell><mxCell id="-07N4ZEuxMwCek4Rzp88-14" value="- readInt(text: String, min: int, max: int): int" style="text;strokeColor=none;fillColor=none;align=left;verticalAlign=top;spacingLeft=4;spacingRight=4;overflow=hidden;rotatable=0;points=[[0,0.5],[1,0.5]];portConstraint=eastwest;" parent="-07N4ZEuxMwCek4Rzp88-1" vertex="1"><mxGeometry y="320" width="330" height="26" as="geometry"/></mxCell><mxCell id="-07N4ZEuxMwCek4Rzp88-15" value="Product" style="swimlane;fontStyle=1;align=center;verticalAlign=top;childLayout=stackLayout;horizontal=1;startSize=26;horizontalStack=0;resizeParent=1;resizeParentMax=0;resizeLast=0;collapsible=1;marginBottom=0;" parent="1" vertex="1"><mxGeometry x="770" y="310" width="250" height="164" as="geometry"/></mxCell><mxCell id="-07N4ZEuxMwCek4Rzp88-16" value="- name: String" style="text;strokeColor=none;fillColor=none;align=left;verticalAlign=top;spacingLeft=4;spacingRight=4;overflow=hidden;rotatable=0;points=[[0,0.5],[1,0.5]];portConstraint=eastwest;" parent="-07N4ZEuxMwCek4Rzp88-15" vertex="1"><mxGeometry y="26" width="250" height="26" as="geometry"/></mxCell><mxCell id="-07N4ZEuxMwCek4Rzp88-17" value="- price: double" style="text;strokeColor=none;fillColor=none;align=left;verticalAlign=top;spacingLeft=4;spacingRight=4;overflow=hidden;rotatable=0;points=[[0,0.5],[1,0.5]];portConstraint=eastwest;" parent="-07N4ZEuxMwCek4Rzp88-15" vertex="1"><mxGeometry y="52" width="250" height="26" as="geometry"/></mxCell><mxCell id="-07N4ZEuxMwCek4Rzp88-18" value="" style="line;strokeWidth=1;fillColor=none;align=left;verticalAlign=middle;spacingTop=-1;spacingLeft=3;spacingRight=3;rotatable=0;labelPosition=right;points=[];portConstraint=eastwest;strokeColor=inherit;" parent="-07N4ZEuxMwCek4Rzp88-15" vertex="1"><mxGeometry y="78" width="250" height="8" as="geometry"/></mxCell><mxCell id="-07N4ZEuxMwCek4Rzp88-19" value="+ Product(name: String, price: double): void" style="text;strokeColor=none;fillColor=none;align=left;verticalAlign=top;spacingLeft=4;spacingRight=4;overflow=hidden;rotatable=0;points=[[0,0.5],[1,0.5]];portConstraint=eastwest;" parent="-07N4ZEuxMwCek4Rzp88-15" vertex="1"><mxGeometry y="86" width="250" height="26" as="geometry"/></mxCell><mxCell id="-07N4ZEuxMwCek4Rzp88-20" value="+ getName(): String" style="text;strokeColor=none;fillColor=none;align=left;verticalAlign=top;spacingLeft=4;spacingRight=4;overflow=hidden;rotatable=0;points=[[0,0.5],[1,0.5]];portConstraint=eastwest;" parent="-07N4ZEuxMwCek4Rzp88-15" vertex="1"><mxGeometry y="112" width="250" height="26" as="geometry"/></mxCell><mxCell id="-07N4ZEuxMwCek4Rzp88-21" value="+ getPrice(): double" style="text;strokeColor=none;fillColor=none;align=left;verticalAlign=top;spacingLeft=4;spacingRight=4;overflow=hidden;rotatable=0;points=[[0,0.5],[1,0.5]];portConstraint=eastwest;" parent="-07N4ZEuxMwCek4Rzp88-15" vertex="1"><mxGeometry y="138" width="250" height="26" as="geometry"/></mxCell><mxCell id="-07N4ZEuxMwCek4Rzp88-110" style="edgeStyle=orthogonalEdgeStyle;rounded=0;orthogonalLoop=1;jettySize=auto;html=1;exitX=0.5;exitY=1;exitDx=0;exitDy=0;endArrow=block;endFill=0;" parent="1" source="-07N4ZEuxMwCek4Rzp88-29" target="-07N4ZEuxMwCek4Rzp88-15" edge="1"><mxGeometry relative="1" as="geometry"><Array as="points"><mxPoint x="414" y="330"/></Array></mxGeometry></mxCell><mxCell id="-07N4ZEuxMwCek4Rzp88-29" value="Topping" style="swimlane;fontStyle=1;align=center;verticalAlign=top;childLayout=stackLayout;horizontal=1;startSize=26;horizontalStack=0;resizeParent=1;resizeParentMax=0;resizeLast=0;collapsible=1;marginBottom=0;" parent="1" vertex="1"><mxGeometry x="279" y="130" width="270" height="52" as="geometry"/></mxCell><mxCell id="-07N4ZEuxMwCek4Rzp88-42" value="+ Topping(name: String, upPrice: double): void" style="text;strokeColor=none;fillColor=none;align=left;verticalAlign=top;spacingLeft=4;spacingRight=4;overflow=hidden;rotatable=0;points=[[0,0.5],[1,0.5]];portConstraint=eastwest;" parent="-07N4ZEuxMwCek4Rzp88-29" vertex="1"><mxGeometry y="26" width="270" height="26" as="geometry"/></mxCell><mxCell id="-07N4ZEuxMwCek4Rzp88-116" style="edgeStyle=orthogonalEdgeStyle;rounded=0;orthogonalLoop=1;jettySize=auto;html=1;endArrow=block;endFill=1;" parent="1" source="-07N4ZEuxMwCek4Rzp88-57" target="-07N4ZEuxMwCek4Rzp88-15" edge="1"><mxGeometry relative="1" as="geometry"><Array as="points"><mxPoint x="520" y="460"/><mxPoint x="520" y="392"/></Array></mxGeometry></mxCell><mxCell id="-07N4ZEuxMwCek4Rzp88-117" style="edgeStyle=orthogonalEdgeStyle;rounded=0;orthogonalLoop=1;jettySize=auto;html=1;endArrow=block;endFill=1;" parent="1" source="-07N4ZEuxMwCek4Rzp88-57" target="-07N4ZEuxMwCek4Rzp88-29" edge="1"><mxGeometry relative="1" as="geometry"><Array as="points"><mxPoint x="390" y="430"/></Array></mxGeometry></mxCell><mxCell id="-07N4ZEuxMwCek4Rzp88-57" value="MenuCard" style="swimlane;fontStyle=1;align=center;verticalAlign=top;childLayout=stackLayout;horizontal=1;startSize=26;horizontalStack=0;resizeParent=1;resizeParentMax=0;resizeLast=0;collapsible=1;marginBottom=0;" parent="1" vertex="1"><mxGeometry x="50" y="350" width="220" height="216" as="geometry"/></mxCell><mxCell id="-07N4ZEuxMwCek4Rzp88-58" value="- instance: MenuCard" style="text;strokeColor=none;fillColor=none;align=left;verticalAlign=top;spacingLeft=4;spacingRight=4;overflow=hidden;rotatable=0;points=[[0,0.5],[1,0.5]];portConstraint=eastwest;" parent="-07N4ZEuxMwCek4Rzp88-57" vertex="1"><mxGeometry y="26" width="220" height="26" as="geometry"/></mxCell><mxCell id="-07N4ZEuxMwCek4Rzp88-59" value="- products: HashMap&lt;String, Product&gt;" style="text;strokeColor=none;fillColor=none;align=left;verticalAlign=top;spacingLeft=4;spacingRight=4;overflow=hidden;rotatable=0;points=[[0,0.5],[1,0.5]];portConstraint=eastwest;" parent="-07N4ZEuxMwCek4Rzp88-57" vertex="1"><mxGeometry y="52" width="220" height="26" as="geometry"/></mxCell><mxCell id="-07N4ZEuxMwCek4Rzp88-99" value="- toppings: HashMap&lt;String, Topping&gt;" style="text;strokeColor=none;fillColor=none;align=left;verticalAlign=top;spacingLeft=4;spacingRight=4;overflow=hidden;rotatable=0;points=[[0,0.5],[1,0.5]];portConstraint=eastwest;" parent="-07N4ZEuxMwCek4Rzp88-57" vertex="1"><mxGeometry y="78" width="220" height="26" as="geometry"/></mxCell><mxCell id="-07N4ZEuxMwCek4Rzp88-60" value="" style="line;strokeWidth=1;fillColor=none;align=left;verticalAlign=middle;spacingTop=-1;spacingLeft=3;spacingRight=3;rotatable=0;labelPosition=right;points=[];portConstraint=eastwest;strokeColor=inherit;" parent="-07N4ZEuxMwCek4Rzp88-57" vertex="1"><mxGeometry y="104" width="220" height="8" as="geometry"/></mxCell><mxCell id="-07N4ZEuxMwCek4Rzp88-61" value="+ getInstance(): MenuCard" style="text;strokeColor=none;fillColor=none;align=left;verticalAlign=top;spacingLeft=4;spacingRight=4;overflow=hidden;rotatable=0;points=[[0,0.5],[1,0.5]];portConstraint=eastwest;" parent="-07N4ZEuxMwCek4Rzp88-57" vertex="1"><mxGeometry y="112" width="220" height="26" as="geometry"/></mxCell><mxCell id="-07N4ZEuxMwCek4Rzp88-62" value="- MenuCard(): void" style="text;strokeColor=none;fillColor=none;align=left;verticalAlign=top;spacingLeft=4;spacingRight=4;overflow=hidden;rotatable=0;points=[[0,0.5],[1,0.5]];portConstraint=eastwest;" parent="-07N4ZEuxMwCek4Rzp88-57" vertex="1"><mxGeometry y="138" width="220" height="26" as="geometry"/></mxCell><mxCell id="-07N4ZEuxMwCek4Rzp88-63" value="+ getToppings(): ArrayList&lt;Topping&gt;" style="text;strokeColor=none;fillColor=none;align=left;verticalAlign=top;spacingLeft=4;spacingRight=4;overflow=hidden;rotatable=0;points=[[0,0.5],[1,0.5]];portConstraint=eastwest;" parent="-07N4ZEuxMwCek4Rzp88-57" vertex="1"><mxGeometry y="164" width="220" height="26" as="geometry"/></mxCell><mxCell id="-07N4ZEuxMwCek4Rzp88-100" value="+ getProducts(): ArrayList&lt;Product&gt;" style="text;strokeColor=none;fillColor=none;align=left;verticalAlign=top;spacingLeft=4;spacingRight=4;overflow=hidden;rotatable=0;points=[[0,0.5],[1,0.5]];portConstraint=eastwest;" parent="-07N4ZEuxMwCek4Rzp88-57" vertex="1"><mxGeometry y="190" width="220" height="26" as="geometry"/></mxCell><mxCell id="-07N4ZEuxMwCek4Rzp88-118" style="edgeStyle=orthogonalEdgeStyle;rounded=0;orthogonalLoop=1;jettySize=auto;html=1;endArrow=block;endFill=0;" parent="1" source="-07N4ZEuxMwCek4Rzp88-71" target="-07N4ZEuxMwCek4Rzp88-15" edge="1"><mxGeometry relative="1" as="geometry"/></mxCell><mxCell id="-07N4ZEuxMwCek4Rzp88-71" value="Meal" style="swimlane;fontStyle=1;align=center;verticalAlign=top;childLayout=stackLayout;horizontal=1;startSize=26;horizontalStack=0;resizeParent=1;resizeParentMax=0;resizeLast=0;collapsible=1;marginBottom=0;" parent="1" vertex="1"><mxGeometry x="695" y="-10" width="400" height="212" as="geometry"/></mxCell><mxCell id="-07N4ZEuxMwCek4Rzp88-72" value="- availableToppings: ArrayList&lt;Topping&gt;" style="text;strokeColor=none;fillColor=none;align=left;verticalAlign=top;spacingLeft=4;spacingRight=4;overflow=hidden;rotatable=0;points=[[0,0.5],[1,0.5]];portConstraint=eastwest;" parent="-07N4ZEuxMwCek4Rzp88-71" vertex="1"><mxGeometry y="26" width="400" height="22" as="geometry"/></mxCell><mxCell id="-07N4ZEuxMwCek4Rzp88-73" value="- toppings: ArrayList&lt;Topping&gt;" style="text;strokeColor=none;fillColor=none;align=left;verticalAlign=top;spacingLeft=4;spacingRight=4;overflow=hidden;rotatable=0;points=[[0,0.5],[1,0.5]];portConstraint=eastwest;" parent="-07N4ZEuxMwCek4Rzp88-71" vertex="1"><mxGeometry y="48" width="400" height="26" as="geometry"/></mxCell><mxCell id="-07N4ZEuxMwCek4Rzp88-74" value="" style="line;strokeWidth=1;fillColor=none;align=left;verticalAlign=middle;spacingTop=-1;spacingLeft=3;spacingRight=3;rotatable=0;labelPosition=right;points=[];portConstraint=eastwest;strokeColor=inherit;" parent="-07N4ZEuxMwCek4Rzp88-71" vertex="1"><mxGeometry y="74" width="400" height="8" as="geometry"/></mxCell><mxCell id="-07N4ZEuxMwCek4Rzp88-75" value="+ Meal(name: String, price: double, toppings: ArrayList&lt;Topping&gt;): void" style="text;strokeColor=none;fillColor=none;align=left;verticalAlign=top;spacingLeft=4;spacingRight=4;overflow=hidden;rotatable=0;points=[[0,0.5],[1,0.5]];portConstraint=eastwest;" parent="-07N4ZEuxMwCek4Rzp88-71" vertex="1"><mxGeometry y="82" width="400" height="26" as="geometry"/></mxCell><mxCell id="-07N4ZEuxMwCek4Rzp88-76" value="+ hasAvailableToppings(): boolean" style="text;strokeColor=none;fillColor=none;align=left;verticalAlign=top;spacingLeft=4;spacingRight=4;overflow=hidden;rotatable=0;points=[[0,0.5],[1,0.5]];portConstraint=eastwest;" parent="-07N4ZEuxMwCek4Rzp88-71" vertex="1"><mxGeometry y="108" width="400" height="26" as="geometry"/></mxCell><mxCell id="-07N4ZEuxMwCek4Rzp88-77" value="+ getAvailableToppings(): ArrayList&lt;Topping&gt;" style="text;strokeColor=none;fillColor=none;align=left;verticalAlign=top;spacingLeft=4;spacingRight=4;overflow=hidden;rotatable=0;points=[[0,0.5],[1,0.5]];portConstraint=eastwest;" parent="-07N4ZEuxMwCek4Rzp88-71" vertex="1"><mxGeometry y="134" width="400" height="26" as="geometry"/></mxCell><mxCell id="-07N4ZEuxMwCek4Rzp88-78" value="+ getToppings(): ArrayList&lt;Topping&gt;" style="text;strokeColor=none;fillColor=none;align=left;verticalAlign=top;spacingLeft=4;spacingRight=4;overflow=hidden;rotatable=0;points=[[0,0.5],[1,0.5]];portConstraint=eastwest;" parent="-07N4ZEuxMwCek4Rzp88-71" vertex="1"><mxGeometry y="160" width="400" height="26" as="geometry"/></mxCell><mxCell id="-07N4ZEuxMwCek4Rzp88-79" value="+ setToppings(): void" style="text;strokeColor=none;fillColor=none;align=left;verticalAlign=top;spacingLeft=4;spacingRight=4;overflow=hidden;rotatable=0;points=[[0,0.5],[1,0.5]];portConstraint=eastwest;" parent="-07N4ZEuxMwCek4Rzp88-71" vertex="1"><mxGeometry y="186" width="400" height="26" as="geometry"/></mxCell><mxCell id="-07N4ZEuxMwCek4Rzp88-109" style="edgeStyle=orthogonalEdgeStyle;rounded=0;orthogonalLoop=1;jettySize=auto;html=1;exitX=0.5;exitY=1;exitDx=0;exitDy=0;endArrow=block;endFill=0;" parent="1" source="-07N4ZEuxMwCek4Rzp88-85" target="-07N4ZEuxMwCek4Rzp88-15" edge="1"><mxGeometry relative="1" as="geometry"><Array as="points"><mxPoint x="1305" y="392"/></Array></mxGeometry></mxCell><mxCell id="-07N4ZEuxMwCek4Rzp88-85" value="Drink" style="swimlane;fontStyle=1;align=center;verticalAlign=top;childLayout=stackLayout;horizontal=1;startSize=26;horizontalStack=0;resizeParent=1;resizeParentMax=0;resizeLast=0;collapsible=1;marginBottom=0;" parent="1" vertex="1"><mxGeometry x="1190" y="70" width="230" height="52" as="geometry"/></mxCell><mxCell id="-07N4ZEuxMwCek4Rzp88-89" value="+ Drink(name: String, price: double): void" style="text;strokeColor=none;fillColor=none;align=left;verticalAlign=top;spacingLeft=4;spacingRight=4;overflow=hidden;rotatable=0;points=[[0,0.5],[1,0.5]];portConstraint=eastwest;" parent="-07N4ZEuxMwCek4Rzp88-85" vertex="1"><mxGeometry y="26" width="230" height="26" as="geometry"/></mxCell></root></mxGraphModel></diagram></mxfile>